<svg xmlns="http://www.w3.org/2000/svg" version="1.1" xmlns:xlink="http://www.w3.org/1999/xlink" xmlns:svgjs="http://svgjs.dev/svgjs" width="2000" height="2250" viewBox="0 0 2000 2250"><g transform="matrix(1,0,0,1,0.00034163026134592656,0)"><svg viewBox="0 0 320 360" data-background-color="#5c0a95" preserveAspectRatio="xMidYMid meet" height="2250" width="2000" xmlns="http://www.w3.org/2000/svg" xmlns:xlink="http://www.w3.org/1999/xlink"><g id="tight-bounds" transform="matrix(1,0,0,1,0.00005466084189720277,0)"><svg viewBox="0 0 320 360" height="360" width="320"><g><svg></svg></g><g><svg viewBox="0 0 320 360" height="360" width="320"><g><path transform="translate(-119.39272,-98.31927) scale(5.58313,5.58313)" d="M36.7 23.5c0-0.2 0.1-0.4 0.3-0.4 0.2 0 0.4 0.1 0.4 0.4 0.1 0 0.3 0 0.4-0.1 0.4 0 0.8-0.1 1.1 0 0.3 0.1 0.5 0.1 0.8 0.2 0.3 0.1 0.5 0 0.7-0.1 0.4-0.1 0.7-0.3 1.1-0.4 0.2-0.1 0.3-0.1 0.5-0.1 0.2-0.1 0.4-0.1 0.7-0.2 0.5-0.1 1-0.2 1.4-0.4 0.4-0.2 0.8-0.2 1.2-0.3 0.2 0 0.3-0.1 0.5-0.2 0.1 0 0.1-0.1 0.2-0.2 0.2-0.1 0.3-0.2 0.5-0.1 0.1 0.1 0.3 0.1 0.4 0h0.1c0.6 0 1.2-0.1 1.9 0 0.1 0 0.2 0 0.2 0 0.3-0.2 0.7-0.2 1.1-0.2 0.1 0 0.3 0 0.4 0h0.1c0.4 0 0.8 0 1.1 0.1 0.3 0 0.5 0.1 0.8 0.2 0.3 0 0.5 0 0.8 0.1 0.2 0 0.4 0 0.6 0 0.1 0 0.2 0 0.2 0 0.4 0.1 0.8 0.1 1.2 0.1 0.3 0.1 0.6 0.2 1 0.2 0.1 0 0.2 0 0.3 0 0.1 0 0.2 0.1 0.3 0.1l0.1 0.1c0.4 0 0.7 0.2 1.1 0.2 0.1 0 0.3 0 0.4 0.1 0.3 0.2 0.7 0.3 1.1 0.3 0.2 0 0.3 0.1 0.4 0.2 0.3 0.1 0.5 0.2 0.8 0.3 0.2 0.1 0.4 0 0.6 0.1 0.3 0.1 0.7 0.2 1 0.5 0.2 0.2 0.4 0.2 0.7 0.4 0.1 0 0.2 0.1 0.3 0.2 0.3 0.2 0.6 0.4 0.9 0.5 0.1 0 0.2 0.1 0.3 0.1 0.3 0.2 0.6 0.5 1 0.7 0.2 0.1 0.3 0.2 0.5 0.3h0.1c0.3 0.3 0.7 0.5 1 0.8 0.3 0.3 0.5 0.5 0.9 0.7 0 0 0 0 0 0.1 0.1 0.2 0.2 0.3 0.4 0.4 0.2 0.1 0.3 0.2 0.4 0.3 0.3 0.2 0.6 0.4 0.8 0.6 0.1 0.1 0.2 0.2 0.4 0.4 0.1 0.1 0.2 0.2 0.3 0.2 0.4 0.1 0.6 0.4 0.9 0.7 0.2 0.2 0.5 0.5 0.7 0.7 0.1 0.1 0.2 0.3 0.3 0.5 0.2 0.6 0.5 1.2 0.8 1.7 0 0 0 0.1 0.1 0.2v0.1c0.2 0.2 0.3 0.5 0.5 0.7 0.1 0.1 0.1 0.2 0.2 0.3 0.2 0.3 0.3 0.7 0.5 1 0.3 0.5 0.5 1 0.7 1.5v0.1c0.1 0.2 0.2 0.4 0.3 0.7 0 0.2 0.2 0.4 0.3 0.7 0.1 0.5 0.4 1 0.5 1.6 0 0.1 0.1 0.2 0.1 0.4 0.1 0.3 0.2 0.6 0.3 0.9 0 0.1 0.1 0.2 0.2 0.3 0.2 0.2 0.2 0.4 0.2 0.6-0.1 0.4 0 0.8 0.1 1.2 0 0.1 0 0.2 0 0.4 0.1 0.4 0.2 0.9 0.2 1.3 0 0.1 0 0.3 0 0.4 0 0.3 0.1 0.6 0.3 0.9 0 0.1 0.1 0.1 0.1 0.1 0.1 0.1 0.2 0.3 0.3 0.4 0.1 0.1 0.1 0.1 0.2 0.2 0.2 0.2 0.3 0.4 0.3 0.7 0 0.1-0.1 0.3-0.1 0.4 0 0.1 0 0.3 0.1 0.4 0.1 0.1 0.1 0.2 0.1 0.3 0 0.1-0.1 0.2-0.2 0.2v0c-0.1 0.3-0.5 0.4-0.6 0.7-0.1 0.4-0.2 0.8-0.3 1.2-0.1 0.3-0.1 0.5-0.1 0.8 0 0.3-0.1 0.5-0.1 0.8-0.1 0.4-0.2 0.8-0.3 1.2 0 0.2-0.1 0.4-0.1 0.6 0.1 0.1 0.2 0.2 0.3 0.2 0.2 0.2 0.4 0.4 0.6 0.6 0.1 0.1 0.1 0.2 0 0.2-0.1 0.1-0.2 0.1-0.3 0.1-0.1-0.1-0.3-0.2-0.4-0.2-0.1-0.1-0.3-0.2-0.5-0.1 0 0.2-0.1 0.4-0.1 0.5-0.1 0.2-0.2 0.5-0.2 0.7-0.1 0.4-0.3 0.7-0.4 1.1-0.2 0.5-0.4 0.9-0.6 1.3-0.1 0.2-0.2 0.4-0.3 0.6v0c0 0.3-0.3 0.6-0.4 0.9-0.2 0.4-0.4 0.8-0.6 1.3-0.1 0.2-0.2 0.4-0.3 0.5-0.2 0.5-0.4 0.9-0.7 1.3-0.2 0.3-0.4 0.5-0.6 0.6-0.2 0.2-0.4 0.4-0.6 0.6-0.1 0.1-0.2 0.2-0.3 0.3-0.1 0.1-0.1 0.1-0.2 0.2-0.2 0.3-0.5 0.5-0.7 0.8-0.2 0.2-0.3 0.4-0.6 0.6-0.2 0.2-0.4 0.5-0.7 0.6-0.1 0.1-0.2 0.3-0.3 0.4-0.1 0.1-0.2 0.3-0.3 0.4 0 0.2 0.1 0.4 0.1 0.5 0 0.3-0.3 0.4-0.5 0.2-0.3-0.2-0.3-0.2-0.6 0-0.3 0.2-0.6 0.5-1 0.6-0.1 0-0.1 0.1-0.2 0.1-0.2 0.1-0.3 0.3-0.5 0.4-0.2 0.2-0.5 0.3-0.7 0.5-0.1 0.1-0.2 0.1-0.3 0.2-0.3 0.2-0.6 0.3-0.9 0.6-0.1 0.1-0.2 0.1-0.3 0.2 0 0.1 0 0.1 0 0.2 0 0.2-0.2 0.4-0.5 0.3-0.3-0.1-0.5 0-0.8 0-0.3 0.1-0.6 0.3-0.9 0.4-0.1 0-0.2 0.1-0.3 0.2-0.3 0.2-0.6 0.3-0.9 0.4-0.2 0-0.4 0.2-0.6 0.2-0.1 0-0.2 0.1-0.3 0.1h-0.1c-0.4 0.3-0.8 0.5-1.2 0.8-0.1 0-0.1 0.1-0.2 0.2-0.1 0.2-0.2 0.3-0.4 0.3-0.5 0-0.7 0.4-0.6 0.8 0 0.1 0.1 0.2 0.1 0.3 0.1 0.2 0 0.4-0.1 0.5-0.1 0.1-0.4 0.1-0.5-0.1-0.2-0.2-0.3-0.4-0.4-0.7-0.1-0.2-0.3-0.4-0.5-0.5-0.2-0.1-0.4-0.1-0.6 0-0.1 0-0.1 0.1-0.2 0.1-0.2 0.2-0.5 0.3-0.8 0.2-0.1 0-0.3 0-0.3 0.1-0.1 0.1-0.1 0.3 0 0.4 0.2 0.2 0.1 0.4 0.1 0.7 0 0.4-0.3 0.6-0.7 0.4-0.1-0.1-0.2-0.1-0.3-0.2-0.1 0-0.1-0.1-0.1-0.2-0.1-0.1-0.1-0.3-0.2-0.5-0.2 0.1-0.4 0.1-0.6 0.2-0.1 0-0.2 0.1-0.3 0.1-0.3 0-0.4 0-0.5-0.3-0.1-0.3-0.3-0.3-0.5-0.4-0.4-0.1-0.9-0.1-1.3-0.3h-0.1c-0.4-0.3-0.8-0.3-1.3-0.3-0.3 0-0.6 0.1-0.9 0.1-0.3 0-0.5 0.1-0.7 0.3-0.1 0.1-0.2 0.2-0.3 0.2-0.1-0.1-0.1-0.2-0.2-0.3v-0.1c0-0.1-0.1-0.2-0.2-0.1-0.2 0.1-0.4-0.1-0.6-0.2-0.1-0.1-0.3-0.3-0.3-0.5-0.1-0.1-0.2-0.2-0.3-0.2-0.2 0-0.5-0.1-0.7-0.1-0.1 0-0.2 0-0.2-0.1-0.1-0.1-0.2-0.1-0.4-0.1-0.1 0-0.1-0.1-0.2-0.1 0.2 0.2 0.3 0.4 0.4 0.6 0 0.1 0.1 0.1 0.1 0.2 0.1 0.2 0 0.3-0.3 0.3-0.2 0-0.2 0-0.3 0.1 0 0.2 0 0.3 0 0.5 0 0.1 0 0.2-0.2 0.3 0 0-0.1 0-0.1 0.1-0.1 0.1-0.1 0.2 0 0.3 0.3 0.2 0.5 0.3 0.8 0.4 0.3 0 0.3 0.2 0.4 0.4 0.1 0.2 0 0.3-0.1 0.5-0.2 0.2-0.4 0.4-0.6 0.6-0.3 0.1-0.5 0.4-0.8 0.4-0.2 0-0.4-0.1-0.5-0.3-0.1-0.5-0.1-0.9 0.1-1.4 0-0.1 0.1-0.2 0-0.3-0.9 0-0.9-0.2-0.9-0.3 0-0.2 0.1-0.3 0.1-0.5 0.1-0.2 0-0.3-0.3-0.4-0.1 0-0.2 0-0.3 0-0.1 0-0.1-0.1-0.3-0.1 0.2-0.1 0.3-0.1 0.5-0.2-0.1-0.4-0.2-0.7-0.5-0.9-0.1-0.1-0.2-0.2-0.2-0.4 0-0.3-0.2-0.5-0.3-0.7-0.2-0.3-0.6-0.4-0.9-0.4-0.3-0.1-0.5-0.1-0.8-0.2-0.3-0.1-0.6-0.4-0.9-0.5-0.1-0.1-0.2-0.2-0.4-0.3-0.4-0.2-0.7-0.5-1-0.8-0.2-0.1-0.3-0.3-0.5-0.4-0.2-0.2-0.3-0.4-0.5-0.5-0.2-0.2-0.4-0.4-0.7-0.6-0.3-0.2-0.5-0.5-0.8-0.8-0.2-0.3-0.5-0.5-0.8-0.7-0.1 0-0.2 0-0.3 0-0.1 0-0.2 0.1-0.3 0.1-0.3 0.1-0.5 0.3-0.8 0.4 0.1-0.1 0.1-0.1 0-0.3-0.1-0.1-0.2-0.2-0.3-0.2-0.2 0-0.4 0-0.6 0-0.4 0-0.8 0.1-1.2 0.1-0.3 0-0.7 0.1-1 0.2 0.1 0.2 0.1 0.3 0.2 0.5-0.2 0.1-0.4 0.1-0.6 0.1-0.1 0-0.3 0.1-0.4 0.2-0.1 0-0.1 0.1-0.2 0-0.2-0.1-0.4 0-0.6 0.1h-0.1c0 0 0-0.1 0.1-0.1 0.1-0.1 0.2-0.2 0.3-0.3 0.1-0.1 0.2-0.1 0.4-0.2-0.1-0.1-0.1-0.2-0.1-0.2-0.1-0.1-0.2-0.1-0.3 0-0.1 0.1-0.2 0.2-0.3 0.3-0.1 0.1-0.2 0.1-0.3 0-0.1-0.1-0.1-0.2 0-0.3 0-0.1 0.1-0.2 0.2-0.3 0.1-0.1 0.1-0.2 0.2-0.3-0.2-0.2-0.3-0.4-0.5-0.5-0.3-0.2-0.6-0.5-0.8-0.8-0.2-0.4-0.5-0.7-0.9-0.9-0.1-0.1-0.2-0.2-0.3-0.3-0.1-0.1-0.1-0.1-0.2-0.2-0.3 0.1-0.5 0.3-0.8 0.4-0.1 0-0.1 0.1-0.2 0.2-0.1 0.2-0.3 0.2-0.5 0.2-0.1 0-0.2-0.1-0.1-0.2 0.1-0.2 0.2-0.4 0.5-0.3 0 0 0.1 0 0.1-0.1 0.2-0.2 0.4-0.5 0.7-0.7-0.1-0.3-0.3-0.5-0.4-0.7-0.1-0.1-0.1-0.2-0.1-0.4 0-0.1 0-0.1-0.1-0.2 0 0-0.1 0-0.2 0.1-0.1 0.1-0.3 0.2-0.5 0 0-0.1 0-0.2 0.1-0.3l0.1-0.1c0.3-0.1 0.3-0.4 0.3-0.7v-0.1c-0.1-0.2-0.1-0.3 0.1-0.5 0.3-0.2 0.6-0.6 0.7-0.9 0.1-0.2 0.3-0.3 0.5-0.5 0.2-0.2 0.4-0.4 0.5-0.7h0.1c0.4 0.1 0.5-0.2 0.7-0.5 0-0.1 0-0.2 0.1-0.2 0.2-0.2 0.2-0.4 0.1-0.7 0-0.1-0.1-0.3-0.1-0.4 0-0.1 0-0.1-0.1-0.2-0.3-0.2-0.3-0.4 0-0.6 0.2-0.1 0.2-0.3 0.3-0.4 0.1-0.2 0.1-0.4 0.1-0.7-0.1-0.3-0.1-0.7-0.2-1-0.1-0.4-0.2-0.9-0.3-1.3 0-0.1 0-0.1 0-0.2 0-0.3 0-0.5-0.1-0.8-0.1-0.1-0.1-0.3-0.1-0.4-0.1-0.3-0.2-0.5-0.5-0.6-0.3-0.2-0.7-0.3-1-0.5-0.1-0.1-0.2 0-0.3 0.1-0.1 0.2-0.3 0.4-0.4 0.6-0.1 0.1-0.2 0.3-0.3 0.5-0.2 0.2-0.6 0.4-0.9 0.1-0.1-0.2-0.2-0.3 0-0.5 0.2-0.3 0.4-0.6 0.7-0.8 0.1-0.1 0.2-0.3 0.3-0.4 0.1-0.2 0.1-0.4 0.1-0.6-0.1-0.4-0.2-0.8-0.2-1.3 0-0.5 0-0.9 0.1-1.4 0.1-0.2 0.1-0.5 0.2-0.7 0-0.1 0.1-0.3 0.2-0.4 0.2-0.2 0.4-0.4 0.5-0.7 0.1-0.3 0.3-0.6 0.3-0.9 0-0.1 0.1-0.2 0.1-0.3 0-0.1 0.1-0.3 0.1-0.4-0.1-0.3 0-0.5 0.1-0.7 0.1-0.2 0.2-0.5 0.3-0.7 0.2-0.4 0.2-0.9 0.6-1.3 0.1-0.2 0.2-0.4 0.3-0.6 0.1-0.4 0.3-0.7 0.5-1 0.1-0.1 0.1-0.1 0.1-0.2 0.1-0.3 0.3-0.6 0.5-0.9 0.2-0.3 0.2-0.6 0.3-0.9 0-0.1 0-0.2 0.1-0.3 0.3-0.3 0.2-0.7 0.1-1.1-0.2-0.5-0.3-1-0.2-1.5 0-0.1 0-0.2 0.1-0.2 0.1-0.2 0.1-0.3 0.2-0.5v-0.1c0.2-0.2 0.4-0.5 0.7-0.6 0.4-0.2 0.8-0.3 1.3-0.4 0.4 0 0.8-0.2 1.1-0.6 0-0.1 0.1-0.1 0.2-0.2l0.1-0.1c0.1-0.2 0.2-0.3 0.3-0.4 0.2-0.2 0.4-0.5 0.6-0.7 0.2-0.2 0.4-0.5 0.7-0.8l0.1-0.1c0.2-0.2 0.4-0.4 0.6-0.5 0.2-0.2 0.4-0.4 0.6-0.6 0.2-0.2 0.3-0.4 0.5-0.6 0.2-0.1 0.4-0.3 0.6-0.5 0.2-0.2 0.4-0.4 0.5-0.5 0.2-0.2 0.5-0.4 0.7-0.5 0.2-0.1 0.4-0.2 0.5-0.5 0.1-0.3 0.2-0.5 0.3-0.8 0-0.2 0.1-0.4 0.2-0.6 0.1 0 0.2 0 0.4-0.1-0.1-0.1-0.2-0.1-0.2-0.2 0-0.1 0.1-0.2 0.1-0.2 0-0.1 0.1-0.2 0.1-0.3 0 0 0.1 0 0.1-0.1 0 0 0.1 0 0.1-0.1-0.2 0.1-0.3 0-0.4-0.1 0.1 0.1 0.2 0.1 0.4 0.2 0 0 0.1 0 0.1-0.1 0-0.1 0-0.2 0-0.2 0 0-0.1 0-0.2 0-0.1 0-0.2 0.1-0.3 0.1zM54 70.5c0-0.1-0.1-0.1-0.1-0.2-0.1-0.2 0-0.3 0.1-0.4 0.1-0.1 0.2-0.1 0.4-0.1 0.2 0.1 0.3 0.2 0.3 0.4 0 0.1 0 0.3 0 0.4 0.1 0.4 0.1 0.4 0.5 0.4 0.2 0 0.4 0 0.6 0 0.4-0.1 0.8-0.3 1.2-0.4 0.4-0.1 0.8-0.2 1.2-0.3 0.1 0 0.2 0 0.4 0 0.4 0.1 0.7 0 1-0.2 0.1-0.1 0.3-0.1 0.4-0.2 0.2-0.1 0.4-0.1 0.6-0.2 0.5-0.3 1-0.5 1.4-0.8 0.3-0.2 0.6-0.4 0.9-0.6 0.3-0.2 0.6-0.4 0.9-0.6 0.2-0.1 0.5-0.3 0.7-0.5 0.4-0.3 0.7-0.6 1.1-0.8 0.2-0.1 0.3-0.2 0.4-0.3 0.2-0.1 0.3-0.3 0.5-0.4 0.1-0.1 0.2-0.2 0.4-0.3 0.1-0.1 0.1-0.1 0.1-0.2 0.3-0.2 0.6-0.6 0.8-0.9 0.2-0.2 0.4-0.4 0.6-0.7 0.3-0.3 0.5-0.7 0.8-1.1 0.2-0.2 0.4-0.5 0.5-0.7 0.2-0.4 0.4-0.8 0.7-1.1v-0.1c0.2-0.4 0.4-0.8 0.6-1.2 0.3-0.5 0.5-1.1 0.8-1.6 0.1-0.2 0.2-0.4 0.2-0.6 0.2-0.4 0.3-0.8 0.4-1.2 0-0.1 0-0.1 0.1-0.2 0.3-0.6 0.5-1.2 0.6-1.9 0.1-0.4 0.2-0.8 0.3-1.2 0.2-0.6 0.2-1.1 0.3-1.7 0.1-0.4 0.1-0.9 0.1-1.3 0.1-0.6 0.1-1.3 0-1.9 0-0.5-0.1-1.1-0.1-1.6 0-0.5-0.1-0.9-0.2-1.4-0.1-0.5-0.2-0.9-0.3-1.4-0.2-0.4-0.3-0.8-0.4-1.3-0.1-0.4-0.3-0.7-0.3-1.1 0-0.3-0.1-0.6-0.4-0.7-0.3-0.1-0.5-0.2-0.8-0.4-0.6-0.4-0.9-0.9-0.8-1.5 0-0.3 0.1-0.7 0.2-1 0.1-0.3 0.2-0.6 0-0.8-0.1-0.3-0.3-0.5-0.4-0.7-0.2-0.3-0.3-0.5-0.5-0.7-0.2-0.4-0.4-0.8-0.7-1.1-0.4-0.5-0.7-1-1.2-1.4l-0.1-0.1c-0.3-0.4-0.6-0.8-1-1.1-0.2-0.2-0.4-0.4-0.6-0.5-0.1-0.1-0.2-0.2-0.4-0.3-0.3-0.2-0.6-0.3-0.8-0.5-0.3-0.3-0.7-0.5-1-0.7 0 0-0.1 0-0.1-0.1-0.4-0.2-0.7-0.3-1.1-0.5-0.4-0.2-0.8-0.3-1.2-0.3-0.1 0-0.1 0-0.2 0-0.1-0.1-0.3-0.1-0.4-0.1-0.1 0-0.1 0-0.2 0-0.2-0.1-0.5 0-0.7 0-0.4 0.1-0.8 0.1-1.2-0.1-0.5-0.2-0.9-0.4-1.3-0.6-0.3-0.2-0.5-0.4-0.8-0.6-0.6-0.5-1.2-1.1-1.9-1.6 0.1-0.5-0.1-0.6-0.5-0.6-0.2 0-0.4 0.1-0.6 0.2-0.1 0.1-0.1 0.1-0.2 0.2-0.3 0.2-0.5 0.5-0.8 0.7-0.5 0.3-0.7 0.2-1.1 0-0.1-0.1-0.2-0.2-0.3-0.3-0.2-0.2-0.4-0.5-0.5-0.7-0.2-0.4-0.6-0.4-1-0.4-0.2 0-0.5 0.1-0.7 0.1-0.4 0-0.8 0.2-1 0.5-0.2 0.3-0.4 0.6-0.7 0.9-0.1 0.1-0.3 0.2-0.4 0.4-0.2 0.2-0.4 0.2-0.6 0-0.1-0.1-0.2-0.1-0.3-0.2-0.1 0.1-0.2 0.2-0.2 0.3-0.1 0.2-0.2 0.4-0.3 0.7-0.1 0.3-0.3 0.6-0.5 0.8-0.1 0.1-0.1 0.1-0.2 0.2-0.1 0.2-0.4 0.3-0.6 0.3-0.2 0.2-0.4 0.5-0.5 0.7-0.1 0.2-0.2 0.4-0.3 0.7-0.1 0.1-0.1 0.3-0.2 0.4-0.1 0.2-0.1 0.3-0.1 0.5 0.1 0.3-0.1 0.4-0.4 0.5-0.2 0-0.2 0-0.3 0.2 0 0.3 0.1 0.5 0.2 0.8 0.1 0.1 0.2 0.3 0.2 0.4 0 0.2 0.1 0.3 0.3 0.4 0.1 0.1 0.2 0.2 0.3 0.2 0.1 0 0.1 0.1 0.2 0.1 0.1 0.1 0.2 0 0.2-0.1 0.1-0.3 0.2-0.6 0.2-0.9 0.1-0.4 0.1-0.7 0.2-1.1 0.1-0.2 0.2-0.3 0.3-0.4 0 0 0.1 0 0.2 0v0.1c-0.1 0.5-0.3 1.1-0.4 1.6-0.1 0.2-0.1 0.4-0.2 0.6 0 0.1-0.1 0.2-0.2 0.2-0.2 0.1-0.4 0.2-0.6 0.2-0.1 0-0.2 0-0.3 0-0.2-0.1-0.4-0.3-0.6-0.4-0.1-0.1-0.2-0.2-0.3-0.3-0.1-0.2-0.2-0.4-0.3-0.6-0.1-0.2-0.2-0.3-0.4-0.4-0.1-0.1-0.2-0.1-0.3-0.2-0.2-0.2-0.4-0.3-0.7-0.3-0.1 0-0.3 0-0.4 0-0.1 0-0.3 0.1-0.4 0.2-0.2 0.1-0.3 0.1-0.5 0-0.5-0.2-1-0.1-1.5 0.1-0.2 0.1-0.4 0.2-0.6 0.2-0.5 0-0.9 0-1.4 0-0.5 0-0.9-0.1-1.4-0.2-0.2 0-0.4 0-0.6 0-0.4 0.1-0.5 0.4-0.4 0.8 0.1 0.4 0.2 0.9 0.2 1.3 0 0.3 0 0.6 0 0.9 0 0.2 0 0.3 0 0.5 0 0.3-0.1 0.6-0.1 0.9-0.1 0.6-0.4 1.1-0.8 1.5-0.3 0.3-0.7 0.6-1.1 0.7-0.2 0.1-0.4 0.2-0.7 0.3-0.5 0.2-0.9 0.6-1.2 1.1-0.1 0.2-0.2 0.4-0.3 0.6-0.2 0.3-0.3 0.5-0.5 0.8-0.1 0.2-0.3 0.4-0.4 0.6-0.1 0.2-0.3 0.3-0.3 0.5-0.2 0.4-0.3 0.8-0.5 1.2-0.1 0.2-0.1 0.5-0.2 0.7-0.2 0.4-0.2 0.8-0.2 1.3 0 0.1 0 0.2 0 0.4 0 0.5-0.1 1.1-0.1 1.6 0 0.5 0 1 0.1 1.5 0 0.2 0 0.5 0 0.7 0 0.4 0.1 0.9 0.1 1.3 0 0.4 0 0.9 0.2 1.3v0.1c0.1 0.4 0.1 0.8 0.2 1.2 0 0.1 0 0.2 0.1 0.3 0.2 0.6 0.3 1.1 0.5 1.7 0.1 0.4 0.3 0.8 0.4 1.2 0.1 0.4 0.5 0.8 0.6 1.3v0c0.3 0.6 0.6 1.2 1 1.8 0.1 0.2 0.3 0.4 0.4 0.6 0.2 0.3 0.3 0.6 0.5 0.8 0.1 0.2 0.3 0.4 0.4 0.5 0.1 0.2 0.2 0.4 0.4 0.6 0.2 0.2 0.4 0.5 0.6 0.7 0.3 0.5 0.7 0.9 1.1 1.2 0.2 0.2 0.4 0.3 0.6 0.5 0.1 0.1 0.2 0.1 0.2 0.2 0.1 0.1 0.2 0.2 0.4 0.3 0.8 0.4 1.4 1 2.1 1.6 0.3 0.3 0.6 0.6 1 0.8 0.4 0.3 0.7 0.6 1.2 0.7 0 0 0.1 0 0.1 0.1 0.2 0.2 0.5 0.3 0.7 0.4 0.4 0.2 0.9 0.4 1.3 0.6 0.1 0.1 0.3 0.1 0.4 0.2 0.3 0.1 0.6 0.2 0.9 0.3 0.3 0.1 0.5 0.2 0.8 0.2h0.1c0.2 0.1 0.3 0.1 0.5 0 0.1 0 0.2 0 0.2 0.1 0 0.1 0.1 0.1 0.2 0.1 0.1 0 0.2 0 0.4 0 0.1-0.1 0.1-0.2 0.2-0.4 0.1 0.1 0.2 0.1 0.2 0.1 0.1 0.2 0.3 0.2 0.5 0.2h0.1c0.2 0 0.3 0 0.4-0.1 0-0.1 0.2-0.1 0.3-0.1 0.3 0.1 0.6 0.1 0.9 0.2 0.2 0.1 0.5 0.1 0.6-0.1 0.1-0.1 0.2-0.2 0.4-0.1 0.2 0.1 0.3 0.1 0.5 0 0.1 0 0.2 0 0.2 0 0.3 0.1 0.5 0.1 0.8 0.2 0.4 0.1 0.4 0.1 0.7-0.2 0.1-0.1 0.3-0.1 0.4 0 0.1 0.2 0.1 0.3 0.1 0.5 0.1 0 0.1 0 0.2-0.1 0-0.2 0.1-0.2 0.3-0.3 0.1 0.1 0.1 0.1 0.2 0.1 0.2 0.2 0.3 0.2 0.4-0.1 0-0.1 0-0.2 0.1-0.2 0.1 0 0.2 0.1 0.2 0.1 0.1 0.2 0.3 0.3 0.4 0.5 0.2 0.2 0.5 0.2 0.6 0 0.1-0.1 0.2-0.1 0.3-0.1 0-0.1 0-0.2 0-0.3 0.3 0.2 0.2 0.2 0.1 0.2zM37.4 23.8c0.3 0.1 0.5 0.1 0.6-0.1-0.2 0.1-0.4-0.1-0.6 0.1z" fill="#dbee49" fill-rule="nonzero" stroke="none" stroke-width="1" stroke-linecap="butt" stroke-linejoin="miter" stroke-miterlimit="10" stroke-dasharray="" stroke-dashoffset="0" font-family="none" font-weight="none" font-size="none" text-anchor="none" style="mix-blend-mode: normal" data-fill-palette-color="tertiary"></path></g><g transform="matrix(1,0,0,1,64,155.6441443647297)"><svg viewBox="0 0 192 48.711711270540626" height="48.711711270540626" width="192"><g><svg viewBox="0 0 249.32393905354036 63.25518610421836" height="48.711711270540626" width="192"><g transform="matrix(1,0,0,1,57.32393905354034,19.54677064870613)"><svg viewBox="0 0 192.00000000000003 24.1616448068061" height="24.1616448068061" width="192.00000000000003"><g id="textblocktransform"><svg viewBox="0 0 192.00000000000003 24.1616448068061" height="24.1616448068061" width="192.00000000000003" id="textblock"><g><svg viewBox="0 0 192.00000000000003 24.1616448068061" height="24.1616448068061" width="192.00000000000003"><g transform="matrix(1,0,0,1,0,0)"><svg width="192.00000000000003" viewBox="0.75 -34.1 282.07 35.5" height="24.1616448068061" data-palette-color="#dbee49"><path d="M11.5-7.3L9.55 0 0.75-2.4 2.3-8.2 2.3-26 0.75-26.4 2.7-33.7 11-31.45 11.7-34.1 24.1-30.7 22.25-23.75 22.25-12.8 14.7-8.4 9.85-9.75 9.85-7.75 11.5-7.3ZM9.85-14.4L10.65-17.4 14.7-16.25 14.7-25.45 10.25-26.65 9.85-25.1 9.85-14.4ZM35.75-2.15L35.15 0.15 25.6-2.45 26.15-4.5 26.15-19.6 30.1-19.6 31.6-25.5 46.45-21.6 44.55-14.25 43.55-14.5 43.55-7.85 46.15-7.15 44.2 0.15 35.75-2.15ZM33.7-17.15L33.7-8.1 36-7.45 36-7.5 36-16.55 33.7-17.15ZM59.65-2.15L58.9 0.6 47.95-2.4 49.6-8.6 49.6-17.25 47.95-17.7 49.9-25 58.7-22.6 57.15-16.8 57.15-7.7 59.9-6.95 60.35-8.6 60.35-17.25 58.7-17.7 60.65-25 69.45-22.6 67.9-16.8 67.9-7.7 69.45-7.3 67.5 0 59.65-2.15ZM81.44-7.3L79.49 0 70.69-2.4 72.24-8.2 72.24-31.1 79.79-32.95 79.79-7.75 81.44-7.3ZM101.69-7.15L99.74 0.15 90.19-2.45 92.14-9.75 92.89-9.55 92.89-23.3 90.69-23.9 92.69-31.2 101.49-28.8 100.44-24.95 100.44-18.95 104.14-17.95 104.14-26.3 111.69-26.3 111.69-7.8 113.34-7.35 111.39-0.05 102.59-2.45 104.14-8.25 104.14-16.3 103.14-12.6 100.44-13.35 100.44-8.25 97.64-8.25 101.69-7.15ZM131.29-5.9L129.34 1.4 114.84-2.55 115.69-5.75 115.69-19.6 120.04-19.6 119.14-20.35 123.99-26.15 133.29-18.25 128.44-12.5 129.24-9.6 123.49-8 131.29-5.9ZM126.19-14.35L123.24-16.85 123.24-13.55 126.19-14.35ZM145.53-7.3L143.58 0 134.78-2.4 136.33-8.2 136.33-16.5 134.78-16.9 136.73-24.2 144.08-22.2 144.63-24.2 150.63-22.55 148.68-15.25 143.88-16.55 143.88-7.75 145.53-7.3ZM162.63-7.3L160.68 0 151.88-2.4 153.43-8.2 153.43-16.5 151.88-16.9 153.83-24.2 161.63-22.05 162.43-25 173.38-22 171.73-15.8 171.73-7.75 173.38-7.3 171.43 0 162.63-2.4 164.18-8.2 164.18-16.7 161.48-17.45 160.98-15.6 160.98-7.75 162.63-7.3ZM185.03-2.15L184.43 0.15 174.88-2.45 175.43-4.5 175.43-19.6 179.38-19.6 180.88-25.5 195.73-21.6 193.83-14.25 192.83-14.5 192.83-7.85 195.43-7.15 193.48 0.15 185.03-2.15ZM182.98-17.15L182.98-8.1 185.28-7.45 185.28-7.5 185.28-16.55 182.98-17.15ZM207.98-7.3L206.03 0 197.23-2.4 198.78-8.2 198.78-16.5 197.23-16.9 199.18-24.2 206.98-22.05 207.78-25 218.73-22 217.08-15.8 217.08-7.75 218.73-7.3 216.78 0 207.98-2.4 209.53-8.2 209.53-16.7 206.83-17.45 206.33-15.6 206.33-7.75 207.98-7.3ZM233.37-4.3L232.07 0.7 220.22-2.5 220.72-4.4 220.72-19.6 227.52-19.6 223.12-30.5 230.12-33.35 239.22-10.9 239.22-10.9 239.22-4.3 233.37-4.3ZM228.27-17.8L228.27-8.15 231.67-7.25 231.67-9.4 228.27-17.8ZM257.17-5.9L255.22 1.4 240.72-2.55 241.57-5.75 241.57-19.6 245.92-19.6 245.02-20.35 249.87-26.15 259.17-18.25 254.32-12.5 255.12-9.6 249.37-8 257.17-5.9ZM252.07-14.35L249.12-16.85 249.12-13.55 252.07-14.35ZM268.37-17.1L268.02-15.7 260.67-17.7 262.62-25 281.27-23.9 280.87-16.35 277.32-16.55 278.92-15.15 272.27-7.9 275.12-7.7 275.47-9.1 282.82-7.1 280.87 0.15 280.87 0.2 280.87 0.2 280.87 0.2 280.82 0.2 262.22-0.9 262.62-8.45 262.62-8.45 262.62-8.45 270.37-16.95 268.37-17.1Z" opacity="1" transform="matrix(1,0,0,1,0,0)" fill="#dbee49" class="wordmark-text-0" data-fill-palette-color="primary" id="text-0"></path></svg></g></svg></g></svg></g></svg></g><g><svg viewBox="0 0 51.619954594128785 63.25518610421836" height="63.25518610421836" width="51.619954594128785"><g><svg xmlns="http://www.w3.org/2000/svg" xmlns:xlink="http://www.w3.org/1999/xlink" version="1.1" x="0" y="0" viewBox="18.933999999999987 5.1690000000000005 122.133 149.66199999999998" style="enable-background:new 0 0 160 160;" xml:space="preserve" height="63.25518610421836" width="51.619954594128785" class="icon-icon-0" data-fill-palette-color="accent" id="icon-0"><path d="M98.036 69.992c-0.221 0.174-0.482 0.302-0.774 0.333l-0.496 0.053c-1.55 0.166-2.865 1.229-3.354 2.709l-2.603 7.893c-0.758 2.3-2.318 4.251-4.394 5.495l-6.011 3.604c-1.703 1.021-3.652 1.562-5.638 1.562h-1.496c-1.985 0-3.935-0.54-5.638-1.562l-6.011-3.604c-2.075-1.244-3.636-3.195-4.394-5.494l-2.602-7.893c-0.488-1.479-1.805-2.543-3.357-2.71l-0.49-0.052c-0.684-0.073-1.24-0.598-1.354-1.277l-1.054-6.322c-0.145-0.866 0.157-1.734 0.807-2.324l1.65-1.499c0.04-0.036 0.068-0.08 0.105-0.117 0.096-0.095 0.185-0.194 0.27-0.299 0.058-0.073 0.114-0.146 0.166-0.223 0.07-0.104 0.132-0.212 0.19-0.323 0.044-0.083 0.089-0.165 0.125-0.251 0.049-0.115 0.087-0.234 0.124-0.354 0.027-0.088 0.057-0.175 0.077-0.264 0.027-0.12 0.039-0.243 0.053-0.367 0.011-0.096 0.027-0.19 0.029-0.286 0.001-0.023 0.007-0.044 0.007-0.067l0.109-9.856c0.018-1.584 0.731-3.071 1.958-4.078 1.2-0.986 2.688-1.377 4.193-1.092 10.308 1.927 23.578 0.757 32.7-1.7V32.34c-7.562 2.395-20.836 4.082-31.413 2.103-3.519-0.658-7.137 0.276-9.922 2.563-0.835 0.686-1.566 1.467-2.185 2.323L46.1 34.555c-0.357-1.293-0.184-2.645 0.49-3.805s1.761-1.982 3.061-2.313l3.436-0.875c1.551-0.395 2.636-1.792 2.636-3.392v-0.163c0-6.527 5.311-11.837 11.838-11.837 3.143 0 6.201 0.649 9.092 1.929 6.239 2.764 17.362 6.204 27.539 1.73 0.018 0.768-0.014 1.509-0.087 2.229h7.02c0.192-2.698-0.052-5.583-0.736-8.65-0.258-1.16-1.088-2.11-2.202-2.522-1.113-0.413-2.362-0.232-3.313 0.483C96.43 13.7 85.345 10.293 79.486 7.698c-3.789-1.678-7.802-2.529-11.927-2.529-9.504 0-17.387 7.075-18.658 16.234l-0.979 0.25c-3.137 0.799-5.76 2.782-7.386 5.582s-2.046 6.062-1.184 9.183l5.178 18.751-0.057 0.052c-2.418 2.197-3.542 5.434-3.004 8.656l1.053 6.321c0.542 3.259 2.928 5.879 6.021 6.791l2.038 6.184c0.797 2.414 2.117 4.6 3.842 6.416-9.875 0.001-18.048 7.43-19.226 16.991l-2.774 0.843c-8.068 2.45-13.489 9.762-13.489 18.193v25.715c0 1.933 1.567 3.5 3.5 3.5h103.172c1.933 0 3.5-1.567 3.5-3.5v-25.715c0-8.432-5.421-15.743-13.488-18.193l-2.775-0.843c-1.178-9.562-9.351-16.99-19.226-16.991 1.725-1.816 3.045-4.002 3.842-6.417l2.039-6.183c2.933-0.864 5.21-3.274 5.902-6.301h-3.567C100.496 70.688 99.22 70.434 98.036 69.992zM63.323 102.758v-7.102l0.711 0.426c2.79 1.673 5.984 2.558 9.237 2.558h1.496c3.253 0 6.447-0.885 9.237-2.558l0.711-0.426v7.102c0 0.65 0.189 1.251 0.498 1.773-1.454 4.807-5.92 8.318-11.194 8.318s-9.741-3.511-11.194-8.318C63.134 104.01 63.323 103.408 63.323 102.758zM58.059 106.051c2.098 6.823 8.458 11.799 15.96 11.799 7.502 0 13.862-4.975 15.96-11.799l1.153 0.415c0.728 0.262 1.313 0.823 1.607 1.54 0.284 0.694 0.266 1.44-0.052 2.101-3.438 7.154-10.504 11.599-18.439 11.599-0.079 0-0.153 0.016-0.229 0.023-0.077-0.007-0.151-0.023-0.229-0.023-7.936 0-15.001-4.444-18.439-11.599-0.317-0.66-0.336-1.406-0.052-2.1 0.294-0.718 0.88-1.279 1.608-1.541L58.059 106.051zM92.823 137.768c0 1.002-0.815 1.817-1.818 1.817-1.002 0-1.817-0.815-1.817-1.817 0-1.003 0.815-1.818 1.817-1.818C92.008 135.95 92.823 136.765 92.823 137.768zM58.852 137.768c0 1.002-0.815 1.817-1.817 1.817-1.003 0-1.818-0.815-1.818-1.817 0-1.003 0.815-1.818 1.818-1.818C58.036 135.95 58.852 136.765 58.852 137.768zM105.987 108.961v0.257c0 1.541 1.008 2.901 2.482 3.349l5.112 1.553c5.099 1.549 8.523 6.168 8.523 11.496v22.215H25.934v-22.215c0-5.328 3.425-9.947 8.523-11.496l5.112-1.553c1.475-0.447 2.483-1.808 2.483-3.349v-0.257c0-6.822 5.551-12.373 12.374-12.373h1.897v4.773l-1.109 0.399c-2.058 0.74-3.713 2.326-4.542 4.351-0.815 1.99-0.752 4.236 0.173 6.161 0.996 2.073 2.247 3.955 3.689 5.635v13.523c-2.525 1-4.318 3.461-4.318 6.337 0 3.759 3.059 6.817 6.818 6.817 3.759 0 6.817-3.059 6.817-6.817 0-2.876-1.793-5.337-4.317-6.337v-9.069c4.112 2.78 9.028 4.343 14.256 4.343 0.079 0 0.153-0.016 0.229-0.023 0.077 0.007 0.151 0.023 0.229 0.023 5.228 0 10.144-1.563 14.256-4.343v9.069c-2.524 1-4.317 3.461-4.317 6.337 0 3.759 3.059 6.817 6.817 6.817 3.76 0 6.818-3.059 6.818-6.817 0-2.877-1.793-5.337-4.318-6.337v-13.523c1.443-1.68 2.693-3.562 3.689-5.635 0.925-1.925 0.988-4.17 0.173-6.161-0.829-2.024-2.484-3.61-4.541-4.351l-1.11-0.4v-4.772h1.898C100.437 96.588 105.987 102.139 105.987 108.961z" fill="#dbee49" data-fill-palette-color="accent"></path><path d="M132.672 20.559h-30.84c-4.629 0-8.395 3.766-8.395 8.395v30.839c0 4.629 3.766 8.395 8.395 8.395h6.6v11.024c0 1.02 0.619 1.938 1.565 2.318 0.303 0.122 0.62 0.182 0.934 0.182 0.667 0 1.321-0.267 1.803-0.767l12.276-12.757h7.662c4.629 0 8.395-3.766 8.395-8.395V28.954C141.066 24.325 137.301 20.559 132.672 20.559zM136.066 59.793c0 1.872-1.522 3.395-3.395 3.395h-8.726c-0.68 0-1.33 0.277-1.802 0.767l-8.713 9.054v-7.321c0-1.381-1.119-2.5-2.5-2.5h-9.1c-1.872 0-3.395-1.523-3.395-3.395V28.954c0-1.872 1.522-3.395 3.395-3.395h30.84c1.872 0 3.395 1.523 3.395 3.395V59.793z" fill="#dbee49" data-fill-palette-color="accent"></path><path d="M110.426 40.456c1.062-0.882 1.208-2.458 0.325-3.521-0.883-1.064-2.461-1.208-3.521-0.325l-6.47 5.375c-0.571 0.475-0.902 1.18-0.902 1.923s0.331 1.448 0.902 1.923l6.47 5.375c0.467 0.388 1.033 0.577 1.597 0.577 0.717 0 1.43-0.307 1.924-0.902 0.883-1.062 0.736-2.638-0.325-3.521l-4.155-3.452L110.426 40.456z" fill="#dbee49" data-fill-palette-color="accent"></path><path d="M126.551 36.61c-1.061-0.881-2.638-0.738-3.521 0.325-0.883 1.062-0.736 2.638 0.325 3.521l4.155 3.452-4.155 3.452c-1.062 0.882-1.208 2.458-0.325 3.521 0.494 0.595 1.207 0.902 1.924 0.902 0.563 0 1.13-0.189 1.597-0.577l6.47-5.375c0.571-0.475 0.902-1.18 0.902-1.923s-0.331-1.448-0.902-1.923L126.551 36.61z" fill="#dbee49" data-fill-palette-color="accent"></path><path d="M120.032 34.517c-1.308-0.439-2.726 0.269-3.164 1.577l-4.698 14.042c-0.438 1.31 0.269 2.726 1.578 3.164 0.263 0.088 0.53 0.13 0.793 0.13 1.046 0 2.021-0.661 2.371-1.707l4.698-14.042C122.048 36.371 121.342 34.955 120.032 34.517z" fill="#dbee49" data-fill-palette-color="accent"></path></svg></g></svg></g></svg></g></svg></g></svg></g><defs></defs></svg><rect width="320" height="360" fill="none" stroke="none" visibility="hidden"></rect></g></svg></g></svg>